<?xml version="1.0" standalone="no"?>
<!DOCTYPE svg PUBLIC "-//W3C//DTD SVG 20010904//EN"
 "http://www.w3.org/TR/2001/REC-SVG-20010904/DTD/svg10.dtd">
<svg version="1.0" xmlns="http://www.w3.org/2000/svg"
 width="2678.000000pt" height="2679.000000pt" viewBox="0 0 2678.000000 2679.000000"
 preserveAspectRatio="xMidYMid meet">
<metadata>
Created by potrace 1.16, written by Peter Selinger 2001-2019
</metadata>
<g transform="translate(0.000000,2679.000000) scale(0.100000,-0.100000)"
fill="#000000" stroke="none">
<path d="M12845 26773 c-752 -35 -1380 -110 -2065 -244 -2246 -442 -4370
-1472 -6100 -2958 -512 -441 -1052 -983 -1495 -1501 -1772 -2072 -2877 -4690
-3130 -7415 -65 -706 -73 -1582 -19 -2280 177 -2314 945 -4535 2229 -6445 512
-761 1050 -1408 1721 -2070 367 -361 661 -624 1034 -923 1856 -1488 4076
-2453 6420 -2791 686 -99 1235 -138 1945 -138 565 0 961 21 1475 78 3520 389
6710 2134 8941 4889 1700 2100 2725 4669 2933 7355 41 527 52 1257 27 1725
-169 3117 -1332 5954 -3386 8260 -205 231 -666 698 -910 923 -2332 2148 -5284
3381 -8460 3532 -184 9 -996 11 -1160 3z m7270 -3394 c175 -54 329 -166 471
-343 190 -236 604 -950 932 -1606 990 -1980 1750 -4399 2171 -6905 322 -1919
416 -3781 271 -5370 -124 -1351 -411 -2488 -851 -3375 -116 -232 -260 -485
-350 -610 -157 -219 -379 -377 -619 -441 -121 -33 -358 -33 -475 -1 -286 79
-509 280 -584 525 -31 103 -42 216 -31 316 5 48 57 276 114 506 57 231 129
537 159 680 405 1892 524 3914 351 5975 -179 2147 -680 4324 -1484 6460 -311
827 -655 1620 -1061 2450 -170 348 -193 412 -205 568 -16 217 66 494 212 714
58 86 198 235 282 299 114 87 268 155 412 183 55 10 216 -3 285 -25z m-14329
-1462 c54 -28 9369 -7712 9418 -7769 50 -58 81 -159 72 -236 -7 -67 -53 -166
-93 -203 -48 -45 -9863 -7020 -9899 -7035 -18 -8 -60 -14 -92 -14 -142 0 -266
124 -279 279 -5 63 473 14671 483 14741 16 123 111 231 229 261 43 11 113 0
161 -24z m11848 -5 c89 -32 160 -78 247 -160 95 -89 154 -168 286 -377 515
-822 1002 -1850 1406 -2970 1029 -2848 1492 -6069 1237 -8585 -129 -1260 -439
-2311 -908 -3070 -83 -135 -133 -199 -218 -281 -169 -160 -340 -231 -564 -232
-210 0 -374 66 -515 207 -134 134 -181 258 -173 451 5 94 16 152 81 410 351
1392 507 2662 507 4135 0 1534 -184 3023 -565 4575 -368 1499 -903 2955 -1649
4489 -160 329 -171 369 -163 545 7 144 30 231 102 376 119 242 328 431 550
497 85 25 257 20 339 -10z m-2172 -782 c133 -41 268 -161 389 -346 313 -477
672 -1170 954 -1839 717 -1707 1208 -3724 1365 -5610 36 -439 42 -566 47
-1096 6 -532 -2 -799 -33 -1174 -96 -1165 -368 -2133 -794 -2825 -90 -145
-225 -281 -336 -338 -100 -51 -193 -74 -304 -74 -267 0 -494 166 -546 400 -23
105 -16 166 55 447 152 609 255 1150 326 1710 191 1529 141 3125 -150 4720
-296 1624 -825 3213 -1600 4805 -74 151 -141 302 -150 335 -86 336 169 775
515 886 75 24 182 24 262 -1z m644 -13311 c4 -6 7 -28 7 -48 0 -30 -33 -87
-185 -326 -222 -348 -420 -676 -555 -920 -105 -189 -214 -403 -189 -371 8 10
60 68 115 130 196 218 443 409 560 432 50 10 142 -15 174 -48 51 -50 41 -80
-135 -438 -228 -461 -264 -551 -239 -599 9 -16 21 -21 55 -21 50 0 133 49 225
133 31 28 69 63 84 77 l29 25 -26 -45 c-14 -25 -26 -52 -26 -60 0 -8 11 8 24
36 13 28 41 68 62 90 22 21 38 43 36 49 -2 5 0 7 3 3 4 -4 16 -3 26 3 16 8 21
6 29 -13 10 -21 10 -21 5 5 -5 26 -2 30 55 54 l60 26 -36 30 c-45 38 -54 62
-55 154 -1 61 4 84 26 129 58 119 192 229 378 312 306 134 569 120 540 -30
-16 -89 -91 -175 -179 -208 -101 -37 -144 -24 -144 45 0 25 -5 45 -10 45 -23
0 -150 -71 -233 -131 -93 -66 -157 -129 -157 -154 0 -33 32 -30 199 15 89 24
114 16 149 -47 18 -33 21 -46 12 -62 -13 -26 -85 -75 -131 -90 -78 -25 -303
-165 -364 -227 -65 -65 -34 -147 66 -174 71 -19 212 -8 286 23 76 31 203 115
341 225 57 45 109 82 116 82 27 0 36 -25 36 -107 0 -103 -10 -125 -87 -184
-156 -122 -313 -205 -452 -240 -71 -18 -104 -20 -210 -16 -161 6 -228 28 -307
100 l-55 50 59 61 c67 70 102 114 102 130 0 6 -9 -3 -19 -20 -11 -18 -47 -60
-80 -95 -51 -54 -62 -62 -72 -49 -9 13 -10 12 -5 -2 6 -21 -67 -80 -151 -122
-156 -78 -342 -74 -425 9 -68 68 -75 177 -22 335 31 94 170 382 256 530 30 52
61 106 68 119 l12 24 -33 -24 c-108 -75 -696 -713 -869 -942 -43 -57 -100 -97
-139 -97 -11 0 -36 8 -56 17 -44 21 -45 19 37 208 191 443 461 965 841 1630
203 355 304 507 359 539 67 40 197 61 214 35z m-4100 -28 c77 -35 113 -111 94
-197 -62 -274 -485 -891 -1070 -1559 -106 -120 -120 -153 -123 -273 -3 -101
56 -152 173 -152 92 0 174 47 310 177 59 57 110 103 114 103 3 0 15 9 26 20
26 26 48 25 60 -2 6 -16 9 -18 9 -7 1 28 -26 44 -54 31 -14 -7 -25 -9 -25 -5
0 3 12 57 26 120 67 300 252 729 438 1017 148 229 391 520 522 626 111 89 188
124 264 118 117 -8 177 -78 167 -193 -19 -222 -429 -837 -996 -1494 -64 -74
-129 -150 -145 -169 -51 -60 -72 -211 -36 -270 31 -51 75 -72 150 -72 106 1
184 45 340 195 99 95 136 125 156 125 29 0 46 -146 25 -203 -29 -76 -225 -236
-358 -291 -135 -56 -292 -72 -388 -39 -66 22 -127 84 -154 158 l-22 57 46 49
c25 26 45 54 45 61 0 7 -6 4 -12 -7 -6 -11 -25 -35 -42 -53 -27 -29 -31 -31
-38 -15 -5 14 -7 12 -7 -9 -2 -54 -164 -167 -319 -221 -156 -55 -328 -48 -403
16 -88 75 -114 160 -106 347 7 160 31 282 94 475 165 505 446 975 796 1334
191 194 325 256 443 202z m3551 -34 c43 -23 75 -70 80 -122 5 -38 2 -47 -30
-82 -60 -66 -199 -121 -422 -166 l-109 -22 -57 -75 c-131 -175 -519 -757 -684
-1025 -311 -507 -416 -658 -537 -776 -142 -139 -288 -167 -380 -72 -31 32 -33
39 -33 101 0 53 6 79 28 124 53 108 223 308 261 308 9 0 16 -12 18 -32 2 -24
8 -34 23 -36 34 -5 253 301 580 809 217 336 274 421 357 527 27 35 48 66 45
68 -2 2 -53 -7 -113 -22 -288 -68 -525 -92 -726 -74 -250 21 -348 77 -348 197
0 56 16 103 47 136 51 53 178 105 227 93 33 -8 33 -20 1 -58 -14 -17 -25 -38
-23 -46 5 -27 83 -41 252 -48 239 -10 563 18 857 74 89 17 102 23 174 76 87
63 214 129 290 151 63 18 179 14 222 -8z m-4584 -36 c59 -41 80 -67 79 -99 -1
-52 -133 -361 -462 -1087 -405 -893 -464 -1009 -559 -1106 -49 -50 -63 -58
-111 -67 -196 -37 -206 -36 -195 6 3 13 87 196 185 405 99 209 180 384 180
387 0 4 -111 10 -247 14 -137 3 -284 9 -329 12 l-80 6 -104 -138 c-122 -163
-289 -410 -361 -534 -73 -128 -102 -151 -164 -136 -36 9 -94 65 -104 101 -24
85 72 267 301 573 55 73 97 136 94 140 -4 3 -77 1 -163 -6 -109 -8 -160 -9
-168 -1 -21 21 -11 94 17 132 57 73 173 107 375 107 61 0 122 4 135 9 13 5 68
60 123 122 206 234 545 573 751 749 199 172 457 350 551 380 31 11 38 10 65
-10 16 -12 31 -20 33 -18 1 1 10 19 20 38 29 58 43 70 72 59 13 -5 43 -22 66
-38z m622 -3040 c44 -11 111 -22 149 -26 65 -7 106 -28 106 -54 0 -6 -41 -65
-91 -132 -552 -740 -1062 -1487 -1194 -1749 -35 -69 -35 -71 -13 -65 106 33
294 184 448 359 52 60 78 82 86 75 6 -5 19 -59 29 -119 15 -103 15 -111 -1
-147 -26 -56 -221 -245 -360 -349 -159 -120 -266 -174 -343 -174 -133 1 -234
106 -217 227 19 141 338 658 868 1405 65 92 118 169 118 172 0 6 -156 -155
-465 -479 -463 -487 -1015 -1052 -1117 -1146 -128 -118 -149 -125 -234 -84
-58 28 -94 71 -94 112 0 13 21 71 47 130 87 201 471 947 660 1283 36 63 74
131 85 150 30 53 -64 -49 -248 -269 -452 -540 -909 -1198 -1151 -1658 -42 -79
-74 -128 -88 -135 -27 -12 -105 2 -171 32 -44 19 -84 68 -84 103 0 100 624
1006 1117 1622 418 522 758 873 858 886 11 1 37 -1 58 -6 25 -5 42 -3 52 5 32
27 170 8 216 -28 16 -14 20 -25 16 -43 -3 -13 -79 -155 -168 -314 -362 -649
-560 -1008 -632 -1145 l-76 -145 47 55 c286 331 600 668 957 1025 386 386 616
590 710 631 38 17 27 17 120 -5z m3087 -531 c27 -27 30 -36 26 -73 -15 -131
-167 -273 -272 -253 -45 9 -66 39 -66 96 1 103 92 218 200 251 51 15 81 10
112 -21z m-1016 -465 c28 -8 61 -26 73 -39 29 -31 37 -95 21 -156 -32 -120
-247 -227 -332 -165 -30 22 -35 50 -13 79 39 51 0 55 -140 14 -209 -60 -482
-248 -446 -307 5 -7 85 -31 177 -52 281 -63 353 -90 429 -160 186 -171 10
-421 -386 -553 -173 -58 -304 -66 -439 -29 -64 17 -97 41 -127 91 -29 46 -29
74 -1 98 34 30 108 135 108 152 0 9 -8 0 -19 -20 -10 -21 -38 -61 -62 -89 -42
-50 -44 -51 -50 -28 l-7 24 -1 -26 c-2 -48 -146 -161 -254 -199 -129 -46 -266
-9 -315 85 -37 71 -32 197 13 308 13 34 23 62 22 63 -1 1 -33 -36 -72 -82 -90
-111 -254 -269 -332 -322 -113 -77 -211 -100 -286 -68 -41 17 -91 74 -107 122
-29 87 15 263 115 465 69 138 302 545 351 612 43 59 90 90 124 82 37 -9 90
-64 90 -95 0 -14 -46 -109 -101 -210 -56 -102 -146 -275 -200 -385 -124 -251
-140 -318 -76 -301 65 16 261 202 496 471 147 168 186 220 250 332 28 50 72
114 96 141 38 42 55 52 107 67 86 23 129 18 146 -17 15 -33 1 -64 -146 -318
-141 -244 -265 -532 -279 -649 -4 -36 -1 -51 14 -70 17 -20 25 -23 56 -17 59
11 151 81 259 197 131 140 147 143 163 28 6 -46 5 -47 -31 -66 -21 -10 -44
-30 -53 -44 -12 -20 -9 -18 17 7 36 35 80 48 117 34 20 -8 25 -16 25 -45 0
-47 14 -71 52 -91 83 -43 417 35 498 116 31 31 26 67 -11 86 -17 8 -125 40
-240 69 -221 57 -295 88 -334 140 -100 131 -6 340 220 490 141 94 376 193 543
229 89 19 216 20 278 1z m669 -80 c55 -56 54 -71 -18 -208 -69 -131 -275 -494
-337 -592 -126 -203 -130 -275 -12 -275 85 0 210 73 302 177 l39 44 4 -33 c3
-30 4 -29 5 9 2 36 8 46 46 77 50 42 63 44 76 14 5 -14 9 -17 9 -8 1 18 -18
40 -34 40 -6 0 -30 -16 -54 -36 l-42 -36 6 28 c44 198 145 376 295 524 184
181 445 301 659 303 75 1 93 -2 138 -26 128 -66 135 -190 20 -352 -57 -80
-115 -120 -174 -120 -37 0 -49 5 -69 28 -34 40 -30 72 21 151 25 38 45 80 45
93 0 20 -5 23 -35 23 -81 0 -228 -82 -380 -210 -188 -159 -285 -329 -285 -496
0 -69 17 -111 63 -151 46 -41 82 -47 226 -40 240 12 475 106 670 271 27 22 52
36 65 34 19 -3 21 -10 21 -64 0 -55 -4 -68 -40 -119 -51 -75 -136 -143 -249
-199 -236 -116 -499 -181 -639 -156 -112 20 -232 88 -287 164 l-29 39 28 36
c32 41 44 61 38 61 -2 0 -17 -18 -32 -40 -31 -45 -41 -49 -50 -19 -4 11 -9 18
-12 16 -2 -3 1 -15 7 -27 10 -19 8 -26 -12 -47 -60 -66 -232 -159 -337 -183
-158 -37 -322 43 -376 183 -15 41 -16 55 -6 105 14 73 122 291 245 496 53 88
96 165 96 172 0 7 -13 29 -30 47 -16 19 -30 43 -30 52 0 23 157 178 231 228
106 72 158 77 214 22z"/>
<path d="M8975 17175 c-566 -112 -1269 -251 -1561 -309 -459 -90 -540 -109
-595 -137 -114 -57 -213 -181 -253 -318 -14 -49 -15 -244 -9 -2060 l6 -2006
-54 -22 c-135 -56 -326 -108 -579 -158 -285 -57 -470 -150 -619 -312 -158
-171 -241 -407 -241 -683 0 -105 20 -255 46 -340 46 -156 172 -340 299 -438
242 -185 599 -250 982 -177 415 79 722 343 853 735 59 175 60 186 61 1325 1
572 5 1370 8 1774 l6 734 55 19 c202 70 696 186 1265 298 410 80 1096 203
1102 196 3 -2 1 -512 -4 -1133 l-8 -1128 -130 -52 c-178 -71 -302 -102 -465
-114 -154 -11 -229 -27 -334 -67 -253 -98 -483 -376 -518 -626 -12 -86 -4
-317 17 -441 65 -404 263 -694 553 -811 146 -59 312 -81 487 -64 353 32 594
132 799 329 167 162 269 359 311 605 15 90 16 313 14 2709 -1 2531 -2 2614
-20 2663 -23 62 -77 126 -132 159 -56 32 -157 55 -242 54 -48 -1 -398 -66
-1100 -204z"/>
<path d="M11741 7513 c-79 -81 -290 -359 -424 -561 -138 -206 -222 -376 -298
-602 l-29 -85 31 35 c60 69 360 473 492 662 224 320 344 532 335 592 -6 41
-37 29 -107 -41z"/>
<path d="M12575 7508 c-115 -118 -380 -479 -505 -688 -35 -58 -83 -147 -107
-198 -44 -95 -137 -342 -131 -348 9 -8 309 389 510 676 246 350 362 561 341
616 -10 28 -38 13 -108 -58z"/>
<path d="M10572 7339 c-276 -221 -561 -489 -808 -759 -111 -121 -121 -136
-101 -141 12 -3 123 -9 247 -13 123 -4 243 -9 265 -12 l40 -5 110 233 c60 128
169 356 242 507 74 151 132 278 131 282 -2 4 -59 -37 -126 -92z"/>
</g>
</svg>
